<svg xmlns="http://www.w3.org/2000/svg" width="1200" height="500" viewBox="0 0 1200 500">
<rect width="100%" height="100%" fill="#ffffff"/>
<style>text{font-family:"Microsoft YaHei","Noto Sans CJK SC",Arial,sans-serif;letter-spacing:0}</style>
<text x="48" y="48" font-size="24" font-weight="700" fill="#172033">GRPO 四卡训练资源分工</text>
<text x="48" y="76" font-size="14" fill="#667085">训练进程使用 GPU 0–1；vLLM 推理服务使用 GPU 2–3</text>
<text x="48.0" y="120.0" font-size="16" fill="#172033" text-anchor="start" font-weight="700">1–200 步</text>
<rect x="70.0" y="216.3" width="48.2" height="203.7" rx="3" fill="#2563eb"/>
<text x="94.1" y="209.3" font-size="10" fill="#172033" text-anchor="middle" font-weight="700">75%</text>
<rect x="121.2" y="199.6" width="48.2" height="220.4" rx="3" fill="#d97706"/>
<text x="145.4" y="192.6" font-size="10" fill="#172033" text-anchor="middle" font-weight="700">82%</text>
<text x="121.2" y="443.0" font-size="11" fill="#667085" text-anchor="middle" font-weight="400">GPU 0</text>
<rect x="194.5" y="153.2" width="48.2" height="266.8" rx="3" fill="#2563eb"/>
<text x="218.6" y="146.2" font-size="10" fill="#172033" text-anchor="middle" font-weight="700">99%</text>
<rect x="245.8" y="198.5" width="48.2" height="221.5" rx="3" fill="#d97706"/>
<text x="269.9" y="191.5" font-size="10" fill="#172033" text-anchor="middle" font-weight="700">82%</text>
<text x="245.8" y="443.0" font-size="11" fill="#667085" text-anchor="middle" font-weight="400">GPU 1</text>
<rect x="319.0" y="361.5" width="48.2" height="58.5" rx="3" fill="#2563eb"/>
<text x="343.1" y="354.5" font-size="10" fill="#172033" text-anchor="middle" font-weight="700">22%</text>
<rect x="370.2" y="157.5" width="48.2" height="262.5" rx="3" fill="#d97706"/>
<text x="394.4" y="150.5" font-size="10" fill="#172033" text-anchor="middle" font-weight="700">97%</text>
<text x="370.2" y="443.0" font-size="11" fill="#667085" text-anchor="middle" font-weight="400">GPU 2</text>
<rect x="443.5" y="361.4" width="48.2" height="58.6" rx="3" fill="#2563eb"/>
<text x="467.6" y="354.4" font-size="10" fill="#172033" text-anchor="middle" font-weight="700">22%</text>
<rect x="494.8" y="157.5" width="48.2" height="262.5" rx="3" fill="#d97706"/>
<text x="518.9" y="150.5" font-size="10" fill="#172033" text-anchor="middle" font-weight="700">97%</text>
<text x="494.8" y="443.0" font-size="11" fill="#667085" text-anchor="middle" font-weight="400">GPU 3</text>
<line x1="48" y1="420" x2="568" y2="420" stroke="#d8dee9"/>
<text x="628.0" y="120.0" font-size="16" fill="#172033" text-anchor="start" font-weight="700">201–600 步</text>
<rect x="650.0" y="217.5" width="48.2" height="202.5" rx="3" fill="#2563eb"/>
<text x="674.1" y="210.5" font-size="10" fill="#172033" text-anchor="middle" font-weight="700">75%</text>
<rect x="701.2" y="194.8" width="48.2" height="225.2" rx="3" fill="#d97706"/>
<text x="725.4" y="187.8" font-size="10" fill="#172033" text-anchor="middle" font-weight="700">83%</text>
<text x="701.2" y="443.0" font-size="11" fill="#667085" text-anchor="middle" font-weight="400">GPU 0</text>
<rect x="774.5" y="155.2" width="48.2" height="264.8" rx="3" fill="#2563eb"/>
<text x="798.6" y="148.2" font-size="10" fill="#172033" text-anchor="middle" font-weight="700">98%</text>
<rect x="825.8" y="198.9" width="48.2" height="221.1" rx="3" fill="#d97706"/>
<text x="849.9" y="191.9" font-size="10" fill="#172033" text-anchor="middle" font-weight="700">82%</text>
<text x="825.8" y="443.0" font-size="11" fill="#667085" text-anchor="middle" font-weight="400">GPU 1</text>
<rect x="899.0" y="360.4" width="48.2" height="59.6" rx="3" fill="#2563eb"/>
<text x="923.1" y="353.4" font-size="10" fill="#172033" text-anchor="middle" font-weight="700">22%</text>
<rect x="950.2" y="154.4" width="48.2" height="265.6" rx="3" fill="#d97706"/>
<text x="974.4" y="147.4" font-size="10" fill="#172033" text-anchor="middle" font-weight="700">98%</text>
<text x="950.2" y="443.0" font-size="11" fill="#667085" text-anchor="middle" font-weight="400">GPU 2</text>
<rect x="1023.5" y="360.3" width="48.2" height="59.7" rx="3" fill="#2563eb"/>
<text x="1047.6" y="353.3" font-size="10" fill="#172033" text-anchor="middle" font-weight="700">22%</text>
<rect x="1074.8" y="154.4" width="48.2" height="265.6" rx="3" fill="#d97706"/>
<text x="1098.9" y="147.4" font-size="10" fill="#172033" text-anchor="middle" font-weight="700">98%</text>
<text x="1074.8" y="443.0" font-size="11" fill="#667085" text-anchor="middle" font-weight="400">GPU 3</text>
<line x1="628" y1="420" x2="1148" y2="420" stroke="#d8dee9"/>
<rect x="450" y="458" width="14" height="14" fill="#2563eb"/><text x="472" y="470" font-size="12" fill="#667085">平均 GPU 利用率</text>
<rect x="610" y="458" width="14" height="14" fill="#d97706"/><text x="632" y="470" font-size="12" fill="#667085">平均显存占用率</text>
</svg>