<svg xmlns="http://www.w3.org/2000/svg" width="1280" height="640" viewBox="0 0 1280 640">
<rect width="1280" height="640" fill="#f8fafc"/>
<rect x="0" y="0" width="18" height="640" fill="#2563eb"/>
<style>text{font-family:"Microsoft YaHei","Noto Sans CJK SC",Arial,sans-serif;letter-spacing:0}</style>
<text x="72" y="92" font-size="44" font-weight="700" fill="#172033">中文法律咨询模型的领域适配与评测</text>
<text x="74" y="137" font-size="21" fill="#667085">Qwen3-8B · SFT / DPO / RAFT / GRPO / AWQ · 预注册门禁</text>
<line x1="74" y1="176" x2="1208" y2="176" stroke="#d8dee9"/>
<rect x="74" y="218" width="8" height="122" fill="#2563eb"/>
<text x="98.0" y="244.0" font-size="16" fill="#667085" text-anchor="start" font-weight="700">咨询质量</text>
<text x="98.0" y="288.0" font-size="27" fill="#172033" text-anchor="start" font-weight="700">6.81 → 7.33</text>
<text x="98.0" y="324.0" font-size="14" fill="#667085" text-anchor="start" font-weight="400">Audited Gold SFT</text>
<rect x="360" y="218" width="8" height="122" fill="#059669"/>
<text x="384.0" y="244.0" font-size="16" fill="#667085" text-anchor="start" font-weight="700">结构化抽取</text>
<text x="384.0" y="288.0" font-size="27" fill="#172033" text-anchor="start" font-weight="700">0.603 → 0.702</text>
<text x="384.0" y="324.0" font-size="14" fill="#667085" text-anchor="start" font-weight="400">confirm120 micro-F1</text>
<rect x="646" y="218" width="8" height="122" fill="#d97706"/>
<text x="670.0" y="244.0" font-size="16" fill="#667085" text-anchor="start" font-weight="700">RAG required 召回</text>
<text x="670.0" y="288.0" font-size="27" fill="#172033" text-anchor="start" font-weight="700">35/42 → 39/42</text>
<text x="670.0" y="324.0" font-size="14" fill="#667085" text-anchor="start" font-weight="400">GRPO-200 高水位</text>
<rect x="932" y="218" width="8" height="122" fill="#dc2626"/>
<text x="956.0" y="244.0" font-size="16" fill="#667085" text-anchor="start" font-weight="700">AWQ 并发 1 吞吐</text>
<text x="956.0" y="288.0" font-size="27" fill="#172033" text-anchor="start" font-weight="700">75.6 → 195.0</text>
<text x="956.0" y="324.0" font-size="14" fill="#667085" text-anchor="start" font-weight="400">token/s</text>
<line x1="74" y1="384" x2="1208" y2="384" stroke="#d8dee9"/>
<text x="74" y="435" font-size="22" font-weight="700" fill="#172033">核心结论</text>
<text x="74" y="480" font-size="20" fill="#172033">GRPO 能把致密、可验证的奖励转化为行为移动，但不能越过稀疏奖励与零容忍门禁的边界。</text>
<text x="74" y="524" font-size="20" fill="#172033">LLM 评审必须先测噪声、偏置和目标效应分辨率；预注册条款仍需在新适用域中重新验证。</text>
<text x="74" y="594" font-size="16" fill="#667085">公开数据 · 完整回答 · 机器可读指标 · 阳性与失败结果</text>
</svg>