<svg xmlns="http://www.w3.org/2000/svg" width="1000" height="500" viewBox="0 0 1000 500">
<rect width="100%" height="100%" fill="#ffffff"/>
<style>text{font-family:"Microsoft YaHei","Noto Sans CJK SC",Arial,sans-serif;letter-spacing:0}</style>
<text x="48" y="48" font-size="24" font-weight="700" fill="#172033">BF16 与 AWQ 输出吞吐</text>
<text x="48" y="76" font-size="14" fill="#667085">RTX 4090D；每个并发点两次重复，矩阵判定稳定</text>
<text x="70.0" y="130.0" font-size="15" fill="#172033" text-anchor="start" font-weight="700">总输出吞吐（token/s）</text>
<line x1="112" y1="406.0" x2="918" y2="406.0" stroke="#d8dee9"/>
<text x="104.0" y="410.0" font-size="10" fill="#667085" text-anchor="end" font-weight="400">0</text>
<line x1="112" y1="344.0" x2="918" y2="344.0" stroke="#d8dee9"/>
<text x="104.0" y="348.0" font-size="10" fill="#667085" text-anchor="end" font-weight="400">1000</text>
<line x1="112" y1="282.0" x2="918" y2="282.0" stroke="#d8dee9"/>
<text x="104.0" y="286.0" font-size="10" fill="#667085" text-anchor="end" font-weight="400">2000</text>
<line x1="112" y1="220.0" x2="918" y2="220.0" stroke="#d8dee9"/>
<text x="104.0" y="224.0" font-size="10" fill="#667085" text-anchor="end" font-weight="400">3000</text>
<line x1="112" y1="158.0" x2="918" y2="158.0" stroke="#d8dee9"/>
<text x="104.0" y="162.0" font-size="10" fill="#667085" text-anchor="end" font-weight="400">4000</text>
<polyline points="112.0,401.3 190.0,388.3 294.0,371.5 502.0,343.8 918.0,295.8" fill="none" stroke="#2563eb" stroke-width="3"/>
<circle cx="112.0" cy="401.3" r="3" fill="#2563eb"/>
<circle cx="190.0" cy="388.3" r="3" fill="#2563eb"/>
<circle cx="294.0" cy="371.5" r="3" fill="#2563eb"/>
<circle cx="502.0" cy="343.8" r="3" fill="#2563eb"/>
<circle cx="918.0" cy="295.8" r="3" fill="#2563eb"/>
<polyline points="112.0,393.9 190.0,360.1 294.0,320.0 502.0,262.4 918.0,170.8" fill="none" stroke="#059669" stroke-width="3"/>
<circle cx="112.0" cy="393.9" r="3" fill="#059669"/>
<circle cx="190.0" cy="360.1" r="3" fill="#059669"/>
<circle cx="294.0" cy="320.0" r="3" fill="#059669"/>
<circle cx="502.0" cy="262.4" r="3" fill="#059669"/>
<circle cx="918.0" cy="170.8" r="3" fill="#059669"/>
<text x="112.0" y="424.0" font-size="10" fill="#667085" text-anchor="middle" font-weight="400">1.0</text>
<text x="190.0" y="424.0" font-size="10" fill="#667085" text-anchor="middle" font-weight="400">4.0</text>
<text x="294.0" y="424.0" font-size="10" fill="#667085" text-anchor="middle" font-weight="400">8.0</text>
<text x="502.0" y="424.0" font-size="10" fill="#667085" text-anchor="middle" font-weight="400">16.0</text>
<text x="918.0" y="424.0" font-size="10" fill="#667085" text-anchor="middle" font-weight="400">32.0</text>
<line x1="668" y1="131" x2="688" y2="131" stroke="#2563eb" stroke-width="3"/>
<text x="694.0" y="135.0" font-size="11" fill="#667085" text-anchor="start" font-weight="400">BF16</text>
<line x1="793" y1="131" x2="813" y2="131" stroke="#059669" stroke-width="3"/>
<text x="819.0" y="135.0" font-size="11" fill="#667085" text-anchor="start" font-weight="400">AWQ W4A16</text>
</svg>