<svg xmlns="http://www.w3.org/2000/svg" width="1200" height="420" viewBox="0 0 1200 420">
<rect width="100%" height="100%" fill="#ffffff"/>
<style>text{font-family:"Microsoft YaHei","Noto Sans CJK SC",Arial,sans-serif;letter-spacing:0}</style>
<text x="48" y="48" font-size="24" font-weight="700" fill="#172033">引用行为方法对比</text>
<text x="48" y="76" font-size="14" fill="#667085">dev84 冻结集；no-context 42 行，RAG 42 行</text>
<text x="48.0" y="112.0" font-size="15" fill="#172033" text-anchor="start" font-weight="700">无据引用行（越低越好）</text>
<line x1="48" y1="338" x2="390" y2="338" stroke="#d8dee9"/>
<rect x="66.0" y="149.4" width="63.0" height="188.6" rx="3" fill="#2563eb" opacity="0.9"/>
<text x="97.5" y="141.4" font-size="12" fill="#172033" text-anchor="middle" font-weight="700">40/42</text>
<text x="97.5" y="360.0" font-size="11" fill="#667085" text-anchor="middle" font-weight="400">Base</text>
<rect x="147.0" y="177.7" width="63.0" height="160.3" rx="3" fill="#059669" opacity="0.9"/>
<text x="178.5" y="169.7" font-size="12" fill="#172033" text-anchor="middle" font-weight="700">34/42</text>
<text x="178.5" y="360.0" font-size="11" fill="#667085" text-anchor="middle" font-weight="400">RAFT</text>
<rect x="228.0" y="168.3" width="63.0" height="169.7" rx="3" fill="#d97706" opacity="0.9"/>
<text x="259.5" y="160.3" font-size="12" fill="#172033" text-anchor="middle" font-weight="700">36/42</text>
<text x="259.5" y="360.0" font-size="11" fill="#667085" text-anchor="middle" font-weight="400">GRPO-200</text>
<rect x="309.0" y="154.1" width="63.0" height="183.9" rx="3" fill="#dc2626" opacity="0.9"/>
<text x="340.5" y="146.1" font-size="12" fill="#172033" text-anchor="middle" font-weight="700">39/42</text>
<text x="340.5" y="360.0" font-size="11" fill="#667085" text-anchor="middle" font-weight="400">GRPO-600</text>
<text x="430.0" y="112.0" font-size="15" fill="#172033" text-anchor="start" font-weight="700">RAG 引用精度</text>
<line x1="430" y1="338" x2="772" y2="338" stroke="#d8dee9"/>
<rect x="448.0" y="185.5" width="63.0" height="152.5" rx="3" fill="#2563eb" opacity="0.9"/>
<text x="479.5" y="177.5" font-size="12" fill="#172033" text-anchor="middle" font-weight="700">77.0%</text>
<text x="479.5" y="360.0" font-size="11" fill="#667085" text-anchor="middle" font-weight="400">Base</text>
<rect x="529.0" y="192.9" width="63.0" height="145.1" rx="3" fill="#059669" opacity="0.9"/>
<text x="560.5" y="184.9" font-size="12" fill="#172033" text-anchor="middle" font-weight="700">73.3%</text>
<text x="560.5" y="360.0" font-size="11" fill="#667085" text-anchor="middle" font-weight="400">RAFT</text>
<rect x="610.0" y="182.1" width="63.0" height="155.9" rx="3" fill="#d97706" opacity="0.9"/>
<text x="641.5" y="174.1" font-size="12" fill="#172033" text-anchor="middle" font-weight="700">78.7%</text>
<text x="641.5" y="360.0" font-size="11" fill="#667085" text-anchor="middle" font-weight="400">GRPO-200</text>
<rect x="691.0" y="184.8" width="63.0" height="153.2" rx="3" fill="#dc2626" opacity="0.9"/>
<text x="722.5" y="176.8" font-size="12" fill="#172033" text-anchor="middle" font-weight="700">77.4%</text>
<text x="722.5" y="360.0" font-size="11" fill="#667085" text-anchor="middle" font-weight="400">GRPO-600</text>
<text x="812.0" y="112.0" font-size="15" fill="#172033" text-anchor="start" font-weight="700">required 行召回</text>
<line x1="812" y1="338" x2="1154" y2="338" stroke="#d8dee9"/>
<rect x="830.0" y="173.0" width="63.0" height="165.0" rx="3" fill="#2563eb" opacity="0.9"/>
<text x="861.5" y="165.0" font-size="12" fill="#172033" text-anchor="middle" font-weight="700">83.3%</text>
<text x="861.5" y="360.0" font-size="11" fill="#667085" text-anchor="middle" font-weight="400">Base</text>
<rect x="911.0" y="168.3" width="63.0" height="169.7" rx="3" fill="#059669" opacity="0.9"/>
<text x="942.5" y="160.3" font-size="12" fill="#172033" text-anchor="middle" font-weight="700">85.7%</text>
<text x="942.5" y="360.0" font-size="11" fill="#667085" text-anchor="middle" font-weight="400">RAFT</text>
<rect x="992.0" y="154.1" width="63.0" height="183.9" rx="3" fill="#d97706" opacity="0.9"/>
<text x="1023.5" y="146.1" font-size="12" fill="#172033" text-anchor="middle" font-weight="700">92.9%</text>
<text x="1023.5" y="360.0" font-size="11" fill="#667085" text-anchor="middle" font-weight="400">GRPO-200</text>
<rect x="1073.0" y="163.6" width="63.0" height="174.4" rx="3" fill="#dc2626" opacity="0.9"/>
<text x="1104.5" y="155.6" font-size="12" fill="#172033" text-anchor="middle" font-weight="700">88.1%</text>
<text x="1104.5" y="360.0" font-size="11" fill="#667085" text-anchor="middle" font-weight="400">GRPO-600</text>
</svg>