<svg xmlns="http://www.w3.org/2000/svg" width="1200" height="650" viewBox="0 0 1200 650">
<rect width="100%" height="100%" fill="#ffffff"/>
<style>text{font-family:"Microsoft YaHei","Noto Sans CJK SC",Arial,sans-serif;letter-spacing:0}</style>
<text x="48" y="48" font-size="24" font-weight="700" fill="#172033">GRPO 600 步剂量响应</text>
<text x="48" y="76" font-size="14" fill="#667085">每 50 步聚合；紫色虚线为原 200 步终点</text>
<text x="48.0" y="116.0" font-size="15" fill="#172033" text-anchor="start" font-weight="700">奖励与全败组</text>
<line x1="90" y1="302.0" x2="576" y2="302.0" stroke="#d8dee9"/>
<text x="82.0" y="306.0" font-size="10" fill="#667085" text-anchor="end" font-weight="400">0.00</text>
<line x1="90" y1="262.5" x2="576" y2="262.5" stroke="#d8dee9"/>
<text x="82.0" y="266.5" font-size="10" fill="#667085" text-anchor="end" font-weight="400">0.12</text>
<line x1="90" y1="223.0" x2="576" y2="223.0" stroke="#d8dee9"/>
<text x="82.0" y="227.0" font-size="10" fill="#667085" text-anchor="end" font-weight="400">0.25</text>
<line x1="90" y1="183.5" x2="576" y2="183.5" stroke="#d8dee9"/>
<text x="82.0" y="187.5" font-size="10" fill="#667085" text-anchor="end" font-weight="400">0.38</text>
<line x1="90" y1="144.0" x2="576" y2="144.0" stroke="#d8dee9"/>
<text x="82.0" y="148.0" font-size="10" fill="#667085" text-anchor="end" font-weight="400">0.50</text>
<polyline points="90.0,230.3 134.2,224.5 178.4,227.3 222.5,221.4 266.7,224.0 310.9,221.6 355.1,224.6 399.3,229.1 443.5,218.9 487.6,220.1 531.8,225.9 576.0,219.4" fill="none" stroke="#2563eb" stroke-width="3"/>
<circle cx="90.0" cy="230.3" r="3" fill="#2563eb"/>
<circle cx="134.2" cy="224.5" r="3" fill="#2563eb"/>
<circle cx="178.4" cy="227.3" r="3" fill="#2563eb"/>
<circle cx="222.5" cy="221.4" r="3" fill="#2563eb"/>
<circle cx="266.7" cy="224.0" r="3" fill="#2563eb"/>
<circle cx="310.9" cy="221.6" r="3" fill="#2563eb"/>
<circle cx="355.1" cy="224.6" r="3" fill="#2563eb"/>
<circle cx="399.3" cy="229.1" r="3" fill="#2563eb"/>
<circle cx="443.5" cy="218.9" r="3" fill="#2563eb"/>
<circle cx="487.6" cy="220.1" r="3" fill="#2563eb"/>
<circle cx="531.8" cy="225.9" r="3" fill="#2563eb"/>
<circle cx="576.0" cy="219.4" r="3" fill="#2563eb"/>
<polyline points="90.0,161.4 134.2,172.4 178.4,183.5 222.5,175.6 266.7,178.8 310.9,169.3 355.1,180.3 399.3,167.7 443.5,183.5 487.6,175.6 531.8,170.9 576.0,175.6" fill="none" stroke="#dc2626" stroke-width="3"/>
<circle cx="90.0" cy="161.4" r="3" fill="#dc2626"/>
<circle cx="134.2" cy="172.4" r="3" fill="#dc2626"/>
<circle cx="178.4" cy="183.5" r="3" fill="#dc2626"/>
<circle cx="222.5" cy="175.6" r="3" fill="#dc2626"/>
<circle cx="266.7" cy="178.8" r="3" fill="#dc2626"/>
<circle cx="310.9" cy="169.3" r="3" fill="#dc2626"/>
<circle cx="355.1" cy="180.3" r="3" fill="#dc2626"/>
<circle cx="399.3" cy="167.7" r="3" fill="#dc2626"/>
<circle cx="443.5" cy="183.5" r="3" fill="#dc2626"/>
<circle cx="487.6" cy="175.6" r="3" fill="#dc2626"/>
<circle cx="531.8" cy="170.9" r="3" fill="#dc2626"/>
<circle cx="576.0" cy="175.6" r="3" fill="#dc2626"/>
<line x1="222.5" y1="144" x2="222.5" y2="302" stroke="#7c3aed" stroke-dasharray="5 5"/>
<text x="227.5" y="157.0" font-size="10" fill="#7c3aed" text-anchor="start" font-weight="400">200 步</text>
<text x="90.0" y="320.0" font-size="10" fill="#667085" text-anchor="middle" font-weight="400">50</text>
<text x="222.5" y="320.0" font-size="10" fill="#667085" text-anchor="middle" font-weight="400">200</text>
<text x="399.3" y="320.0" font-size="10" fill="#667085" text-anchor="middle" font-weight="400">400</text>
<text x="576.0" y="320.0" font-size="10" fill="#667085" text-anchor="middle" font-weight="400">600</text>
<line x1="326" y1="117" x2="346" y2="117" stroke="#2563eb" stroke-width="3"/>
<text x="352.0" y="121.0" font-size="11" fill="#667085" text-anchor="start" font-weight="400">平均奖励</text>
<line x1="451" y1="117" x2="471" y2="117" stroke="#dc2626" stroke-width="3"/>
<text x="477.0" y="121.0" font-size="11" fill="#667085" text-anchor="start" font-weight="400">全败组占比</text>
<text x="620.0" y="116.0" font-size="15" fill="#172033" text-anchor="start" font-weight="700">引用错误计数</text>
<line x1="662" y1="302.0" x2="1142" y2="302.0" stroke="#d8dee9"/>
<text x="654.0" y="306.0" font-size="10" fill="#667085" text-anchor="end" font-weight="400">0</text>
<line x1="662" y1="262.5" x2="1142" y2="262.5" stroke="#d8dee9"/>
<text x="654.0" y="266.5" font-size="10" fill="#667085" text-anchor="end" font-weight="400">5</text>
<line x1="662" y1="223.0" x2="1142" y2="223.0" stroke="#d8dee9"/>
<text x="654.0" y="227.0" font-size="10" fill="#667085" text-anchor="end" font-weight="400">10</text>
<line x1="662" y1="183.5" x2="1142" y2="183.5" stroke="#d8dee9"/>
<text x="654.0" y="187.5" font-size="10" fill="#667085" text-anchor="end" font-weight="400">15</text>
<line x1="662" y1="144.0" x2="1142" y2="144.0" stroke="#d8dee9"/>
<text x="654.0" y="148.0" font-size="10" fill="#667085" text-anchor="end" font-weight="400">20</text>
<polyline points="662.0,159.2 705.6,167.1 749.3,161.1 792.9,163.3 836.5,166.0 880.2,166.1 923.8,163.1 967.5,161.9 1011.1,158.9 1054.7,171.5 1098.4,160.9 1142.0,161.1" fill="none" stroke="#d97706" stroke-width="3"/>
<circle cx="662.0" cy="159.2" r="3" fill="#d97706"/>
<circle cx="705.6" cy="167.1" r="3" fill="#d97706"/>
<circle cx="749.3" cy="161.1" r="3" fill="#d97706"/>
<circle cx="792.9" cy="163.3" r="3" fill="#d97706"/>
<circle cx="836.5" cy="166.0" r="3" fill="#d97706"/>
<circle cx="880.2" cy="166.1" r="3" fill="#d97706"/>
<circle cx="923.8" cy="163.1" r="3" fill="#d97706"/>
<circle cx="967.5" cy="161.9" r="3" fill="#d97706"/>
<circle cx="1011.1" cy="158.9" r="3" fill="#d97706"/>
<circle cx="1054.7" cy="171.5" r="3" fill="#d97706"/>
<circle cx="1098.4" cy="160.9" r="3" fill="#d97706"/>
<circle cx="1142.0" cy="161.1" r="3" fill="#d97706"/>
<polyline points="662.0,265.0 705.6,256.0 749.3,256.7 792.9,259.5 836.5,254.4 880.2,254.8 923.8,255.4 967.5,257.1 1011.1,257.4 1054.7,258.1 1098.4,258.7 1142.0,263.6" fill="none" stroke="#059669" stroke-width="3"/>
<circle cx="662.0" cy="265.0" r="3" fill="#059669"/>
<circle cx="705.6" cy="256.0" r="3" fill="#059669"/>
<circle cx="749.3" cy="256.7" r="3" fill="#059669"/>
<circle cx="792.9" cy="259.5" r="3" fill="#059669"/>
<circle cx="836.5" cy="254.4" r="3" fill="#059669"/>
<circle cx="880.2" cy="254.8" r="3" fill="#059669"/>
<circle cx="923.8" cy="255.4" r="3" fill="#059669"/>
<circle cx="967.5" cy="257.1" r="3" fill="#059669"/>
<circle cx="1011.1" cy="257.4" r="3" fill="#059669"/>
<circle cx="1054.7" cy="258.1" r="3" fill="#059669"/>
<circle cx="1098.4" cy="258.7" r="3" fill="#059669"/>
<circle cx="1142.0" cy="263.6" r="3" fill="#059669"/>
<line x1="792.9" y1="144" x2="792.9" y2="302" stroke="#7c3aed" stroke-dasharray="5 5"/>
<text x="797.9" y="157.0" font-size="10" fill="#7c3aed" text-anchor="start" font-weight="400">200 步</text>
<text x="662.0" y="320.0" font-size="10" fill="#667085" text-anchor="middle" font-weight="400">50</text>
<text x="792.9" y="320.0" font-size="10" fill="#667085" text-anchor="middle" font-weight="400">200</text>
<text x="967.5" y="320.0" font-size="10" fill="#667085" text-anchor="middle" font-weight="400">400</text>
<text x="1142.0" y="320.0" font-size="10" fill="#667085" text-anchor="middle" font-weight="400">600</text>
<line x1="892" y1="117" x2="912" y2="117" stroke="#d97706" stroke-width="3"/>
<text x="918.0" y="121.0" font-size="11" fill="#667085" text-anchor="start" font-weight="400">无据引用</text>
<line x1="1017" y1="117" x2="1037" y2="117" stroke="#059669" stroke-width="3"/>
<text x="1043.0" y="121.0" font-size="11" fill="#667085" text-anchor="start" font-weight="400">漏 required</text>
<text x="48.0" y="390.0" font-size="15" fill="#172033" text-anchor="start" font-weight="700">生成长度</text>
<line x1="90" y1="576.0" x2="576" y2="576.0" stroke="#d8dee9"/>
<text x="82.0" y="580.0" font-size="10" fill="#667085" text-anchor="end" font-weight="400">780</text>
<line x1="90" y1="536.5" x2="576" y2="536.5" stroke="#d8dee9"/>
<text x="82.0" y="540.5" font-size="10" fill="#667085" text-anchor="end" font-weight="400">805</text>
<line x1="90" y1="497.0" x2="576" y2="497.0" stroke="#d8dee9"/>
<text x="82.0" y="501.0" font-size="10" fill="#667085" text-anchor="end" font-weight="400">830</text>
<line x1="90" y1="457.5" x2="576" y2="457.5" stroke="#d8dee9"/>
<text x="82.0" y="461.5" font-size="10" fill="#667085" text-anchor="end" font-weight="400">855</text>
<line x1="90" y1="418.0" x2="576" y2="418.0" stroke="#d8dee9"/>
<text x="82.0" y="422.0" font-size="10" fill="#667085" text-anchor="end" font-weight="400">880</text>
<polyline points="90.0,478.5 134.2,475.7 178.4,462.0 222.5,476.6 266.7,462.3 310.9,486.7 355.1,472.0 399.3,470.6 443.5,499.2 487.6,464.1 531.8,463.5 576.0,486.4" fill="none" stroke="#2563eb" stroke-width="3"/>
<circle cx="90.0" cy="478.5" r="3" fill="#2563eb"/>
<circle cx="134.2" cy="475.7" r="3" fill="#2563eb"/>
<circle cx="178.4" cy="462.0" r="3" fill="#2563eb"/>
<circle cx="222.5" cy="476.6" r="3" fill="#2563eb"/>
<circle cx="266.7" cy="462.3" r="3" fill="#2563eb"/>
<circle cx="310.9" cy="486.7" r="3" fill="#2563eb"/>
<circle cx="355.1" cy="472.0" r="3" fill="#2563eb"/>
<circle cx="399.3" cy="470.6" r="3" fill="#2563eb"/>
<circle cx="443.5" cy="499.2" r="3" fill="#2563eb"/>
<circle cx="487.6" cy="464.1" r="3" fill="#2563eb"/>
<circle cx="531.8" cy="463.5" r="3" fill="#2563eb"/>
<circle cx="576.0" cy="486.4" r="3" fill="#2563eb"/>
<line x1="222.5" y1="418" x2="222.5" y2="576" stroke="#7c3aed" stroke-dasharray="5 5"/>
<text x="227.5" y="431.0" font-size="10" fill="#7c3aed" text-anchor="start" font-weight="400">200 步</text>
<text x="90.0" y="594.0" font-size="10" fill="#667085" text-anchor="middle" font-weight="400">50</text>
<text x="222.5" y="594.0" font-size="10" fill="#667085" text-anchor="middle" font-weight="400">200</text>
<text x="399.3" y="594.0" font-size="10" fill="#667085" text-anchor="middle" font-weight="400">400</text>
<text x="576.0" y="594.0" font-size="10" fill="#667085" text-anchor="middle" font-weight="400">600</text>
<line x1="451" y1="391" x2="471" y2="391" stroke="#2563eb" stroke-width="3"/>
<text x="477.0" y="395.0" font-size="11" fill="#667085" text-anchor="start" font-weight="400">平均 token</text>
<text x="620.0" y="390.0" font-size="15" fill="#172033" text-anchor="start" font-weight="700">熵（KL 稳定在约 5.5e-4）</text>
<line x1="662" y1="576.0" x2="1142" y2="576.0" stroke="#d8dee9"/>
<text x="654.0" y="580.0" font-size="10" fill="#667085" text-anchor="end" font-weight="400">0.55</text>
<line x1="662" y1="536.5" x2="1142" y2="536.5" stroke="#d8dee9"/>
<text x="654.0" y="540.5" font-size="10" fill="#667085" text-anchor="end" font-weight="400">0.58</text>
<line x1="662" y1="497.0" x2="1142" y2="497.0" stroke="#d8dee9"/>
<text x="654.0" y="501.0" font-size="10" fill="#667085" text-anchor="end" font-weight="400">0.61</text>
<line x1="662" y1="457.5" x2="1142" y2="457.5" stroke="#d8dee9"/>
<text x="654.0" y="461.5" font-size="10" fill="#667085" text-anchor="end" font-weight="400">0.65</text>
<line x1="662" y1="418.0" x2="1142" y2="418.0" stroke="#d8dee9"/>
<text x="654.0" y="422.0" font-size="10" fill="#667085" text-anchor="end" font-weight="400">0.68</text>
<polyline points="662.0,485.4 705.6,506.9 749.3,484.8 792.9,505.1 836.5,497.0 880.2,497.6 923.8,502.6 967.5,486.9 1011.1,490.5 1054.7,505.7 1098.4,476.6 1142.0,481.1" fill="none" stroke="#059669" stroke-width="3"/>
<circle cx="662.0" cy="485.4" r="3" fill="#059669"/>
<circle cx="705.6" cy="506.9" r="3" fill="#059669"/>
<circle cx="749.3" cy="484.8" r="3" fill="#059669"/>
<circle cx="792.9" cy="505.1" r="3" fill="#059669"/>
<circle cx="836.5" cy="497.0" r="3" fill="#059669"/>
<circle cx="880.2" cy="497.6" r="3" fill="#059669"/>
<circle cx="923.8" cy="502.6" r="3" fill="#059669"/>
<circle cx="967.5" cy="486.9" r="3" fill="#059669"/>
<circle cx="1011.1" cy="490.5" r="3" fill="#059669"/>
<circle cx="1054.7" cy="505.7" r="3" fill="#059669"/>
<circle cx="1098.4" cy="476.6" r="3" fill="#059669"/>
<circle cx="1142.0" cy="481.1" r="3" fill="#059669"/>
<line x1="792.9" y1="418" x2="792.9" y2="576" stroke="#7c3aed" stroke-dasharray="5 5"/>
<text x="797.9" y="431.0" font-size="10" fill="#7c3aed" text-anchor="start" font-weight="400">200 步</text>
<text x="662.0" y="594.0" font-size="10" fill="#667085" text-anchor="middle" font-weight="400">50</text>
<text x="792.9" y="594.0" font-size="10" fill="#667085" text-anchor="middle" font-weight="400">200</text>
<text x="967.5" y="594.0" font-size="10" fill="#667085" text-anchor="middle" font-weight="400">400</text>
<text x="1142.0" y="594.0" font-size="10" fill="#667085" text-anchor="middle" font-weight="400">600</text>
<line x1="1017" y1="391" x2="1037" y2="391" stroke="#059669" stroke-width="3"/>
<text x="1043.0" y="395.0" font-size="11" fill="#667085" text-anchor="start" font-weight="400">熵</text>
</svg>